<?xml version="1.0" encoding="UTF-8"?>
<svg width="842px" height="892px" viewBox="0 0 842 892" version="1.1" xmlns="http://www.w3.org/2000/svg" xmlns:xlink="http://www.w3.org/1999/xlink">
    <!-- Generator: Sketch 43.2 (39069) - http://www.bohemiancoding.com/sketch -->
    <title>(Logo) Angular Girls</title>
    <desc>Created with Sketch.</desc>
    <defs>
        <polygon id="path-1" points="0.270267796 122.512383 341.618493 0.891874572 692.155825 120.35024 635.399588 571.967726 341.618493 734.66894 52.4319523 574.129868"></polygon>
        <polygon id="path-3" points="0.270267796 122.512383 341.618493 0.891874572 692.155825 120.35024 635.399588 571.967726 341.618493 734.66894 52.4319523 574.129868"></polygon>
        <linearGradient x1="50%" y1="0%" x2="50%" y2="95.5399162%" id="linearGradient-5">
            <stop stop-color="#E23237" offset="0%"></stop>
            <stop stop-color="#B52E31" offset="100%"></stop>
        </linearGradient>
    </defs>
    <g id="Page-1" stroke="none" stroke-width="1" fill="none" fill-rule="evenodd">
        <g id="Artboard-2" transform="translate(-175.000000, -95.000000)">
            <g id="(Logo)-Angular-Girls" transform="translate(174.000000, 95.000000)">
                <g id="Group" transform="translate(77.000000, 0.000000)">
                    <polygon id="Shape" fill="#0061FF" fill-rule="nonzero" points="0.270267796 122.512383 341.618493 0.891874572 692.155825 120.35024 635.399588 571.967726 341.618493 734.66894 52.4319523 574.129868"></polygon>
                    <g id="Shape">
                        <mask id="mask-2" fill="white">
                            <use xlink:href="#path-1"></use>
                        </mask>
                        <use id="Mask" fill="#E23237" fill-rule="nonzero" xlink:href="#path-1"></use>
                        <mask id="mask-4" fill="white">
                            <use xlink:href="#path-3"></use>
                        </mask>
                        <use id="Mask" fill="#E23237" fill-rule="nonzero" xlink:href="#path-3"></use>
                        <polygon fill="#B52E31" fill-rule="nonzero" mask="url(#mask-4)" points="341.618493 0.891874572 341.618493 734.66894 635.399588 572.237995 692.155825 120.35024"></polygon>
                        <path d="M582.29486,699.199414 L606.780242,609.038 L581.303151,609.038 L606.780242,517.902825 L581.303151,517.902825 L606.780242,426.76765 L582.29486,426.76765 L606.780242,339.177108 L581.303151,339.177108 L606.780242,239.029268 L559.789594,239.029268 L565.973869,215.914473 L535.783509,215.914473 L535.783509,189.25207 L541.451172,189.25207 L541.451172,182.931769 L535.68965,182.931769 L543.944293,160.916664 L533.638196,160.916664 L533.638196,138.881965 L529.878674,138.881965 L529.878674,132.18731 L539.161377,121.108258 L529.878674,121.108258 L524.006772,121.108258 L524.006772,58 L505.26104,58 L505.26104,121.108258 L500.224157,121.108258 L490.93994,121.108258 L500.224157,132.18731 L500.224157,138.881965 L496.334426,138.881965 L496.334426,160.916664 L485.06774,160.916664 L494.751341,182.931769 L488.289946,182.931769 L488.289946,189.25207 L494.189113,189.25207 L494.189113,215.913035 L464.128962,215.913035 L471.239969,239.029268 L427.117318,239.029268 L452.595923,339.174233 L427.117318,339.174233 L451.602699,426.764774 L427.117318,426.764774 L452.595923,517.899949 L427.117318,517.899949 L452.595923,609.035124 L427.117318,609.035124 L452.595923,700.170298 L407,823.256061 L516.941966,823.256061 L626.894531,823.256061 L582.29486,699.199414 Z M512.115246,732.503391 C496.191764,732.503391 483.27203,719.679441 483.27203,703.85154 C483.27203,688.035143 496.191764,675.201127 512.115246,675.201127 C528.048861,675.201127 540.957014,688.035143 540.957014,703.85154 C540.957014,719.680879 528.050308,732.503391 512.115246,732.503391 Z" id="Taipei101" fill="url(#linearGradient-5)" fill-rule="nonzero" mask="url(#mask-4)"></path>
                    </g>
                </g>
                <path d="M452.90625,290 L452.90625,297.1875 L440.09375,297.1875 L440.09375,334.6875 L431.8125,334.6875 L431.8125,297.1875 L419,297.1875 L419,290 L452.90625,290 Z M457.5,334.6875 L449,334.6875 L467.96875,290 L476.875,290 L496.25,334.6875 L487.34375,334.6875 L482.25,322.5 L467.40625,322.5 L470.25,315.3125 L479.25,315.3125 L472.21875,298.53125 L457.5,334.6875 Z M510,290 L510,334.6875 L501.71875,334.6875 L501.71875,290 L510,290 Z M515.78125,290 L524.1875,290 L528.96875,322.09375 L540.59375,290 L548.5625,290 L559.4375,320.84375 L564.5,290 L572.65625,290 L564.25,334.6875 L556.375,334.6875 L544.09375,299.625 L530.90625,334.6875 L523.125,334.6875 L515.78125,290 Z M583.03125,334.6875 L574.53125,334.6875 L593.5,290 L602.40625,290 L621.78125,334.6875 L612.875,334.6875 L607.78125,322.5 L592.9375,322.5 L595.78125,315.3125 L604.78125,315.3125 L597.75,298.53125 L583.03125,334.6875 Z M627.25,334.6875 L627.25,290 L635.53125,290 L659.125,322.5625 L659.125,290 L667.09375,290 L667.09375,334.6875 L658.8125,334.6875 L635.21875,301.4375 L635.21875,334.6875 L627.25,334.6875 Z" id="TAIWAN" fill="#FFFFFF"></path>
                <polyline id="Path-2" fill="#FFFFFF" points="581.470716 152.5 552.544681 206.845954 292.441406 206.845954 240.780841 410.42805 418.528687 548.30979 596.111027 410.42805 505.928915 410.42805 442.671369 410.42805 467.708989 362.753821 638.339844 362.753821 659.057373 439.905541 418.528687 608.245589 178 439.998522 255.835707 152.5"></polyline>
                <text id="Angular-Girls" font-family="Sansation-Bold, Sansation" font-size="144" font-weight="bold" fill="#E23237">
                    <tspan x="0" y="865">Angular Girls</tspan>
                </text>
            </g>
        </g>
    </g>
</svg>