<?xml version="1.0" encoding="UTF-8"?>
<svg width="842px" height="613px" viewBox="0 0 842 613" version="1.1" xmlns="http://www.w3.org/2000/svg" xmlns:xlink="http://www.w3.org/1999/xlink">
    <!-- Generator: Sketch 43.2 (39069) - http://www.bohemiancoding.com/sketch -->
    <title>(Logo2) Angular Girls</title>
    <desc>Created with Sketch.</desc>
    <defs></defs>
    <g id="Page-1" stroke="none" stroke-width="1" fill="none" fill-rule="evenodd">
        <g id="Artboard-2" transform="translate(-175.000000, -1236.000000)" fill="#E23237">
            <g id="(Logo2)-Angular-Girls" transform="translate(174.000000, 1236.000000)">
                <polyline id="Path-2" points="586.470716 0 557.544681 54.3459539 297.441406 54.3459539 245.780841 257.92805 423.528687 395.80979 601.111027 257.92805 510.928915 257.92805 447.671369 257.92805 472.708989 210.253821 643.339844 210.253821 664.057373 287.405541 423.528687 455.745589 183 287.498522 260.835707 0"></polyline>
                <path d="M457.90625,131 L457.90625,138.1875 L445.09375,138.1875 L445.09375,175.6875 L436.8125,175.6875 L436.8125,138.1875 L424,138.1875 L424,131 L457.90625,131 Z M462.5,175.6875 L454,175.6875 L472.96875,131 L481.875,131 L501.25,175.6875 L492.34375,175.6875 L487.25,163.5 L472.40625,163.5 L475.25,156.3125 L484.25,156.3125 L477.21875,139.53125 L462.5,175.6875 Z M515,131 L515,175.6875 L506.71875,175.6875 L506.71875,131 L515,131 Z M520.78125,131 L529.1875,131 L533.96875,163.09375 L545.59375,131 L553.5625,131 L564.4375,161.84375 L569.5,131 L577.65625,131 L569.25,175.6875 L561.375,175.6875 L549.09375,140.625 L535.90625,175.6875 L528.125,175.6875 L520.78125,131 Z M588.03125,175.6875 L579.53125,175.6875 L598.5,131 L607.40625,131 L626.78125,175.6875 L617.875,175.6875 L612.78125,163.5 L597.9375,163.5 L600.78125,156.3125 L609.78125,156.3125 L602.75,139.53125 L588.03125,175.6875 Z M632.25,175.6875 L632.25,131 L640.53125,131 L664.125,163.5625 L664.125,131 L672.09375,131 L672.09375,175.6875 L663.8125,175.6875 L640.21875,142.4375 L640.21875,175.6875 L632.25,175.6875 Z" id="TAIWAN"></path>
                <text id="Angular-Girls" font-family="Sansation-Bold, Sansation" font-size="144" font-weight="bold">
                    <tspan x="0" y="586">Angular Girls</tspan>
                </text>
            </g>
        </g>
    </g>
</svg>